<svg width="32" height="33" viewBox="0 0 32 33" fill="none" xmlns="http://www.w3.org/2000/svg">
<path d="M1 8.5V9.5H2H30H31V8.5V7C31 5.52933 30.3938 4.12659 29.3273 3.09818C28.262 2.07095 26.8247 1.5 25.3333 1.5H6.66667C5.17527 1.5 3.73796 2.07095 2.6727 3.09818C1.6062 4.12659 1 5.52933 1 7V8.5ZM31 10.75V9.75H30H20.6667H19.6667V10.75V15.25V16.25H20.6667H30H31V15.25V10.75ZM31 17.5V16.5H30H20.6667H19.6667V17.5V22V23H20.6667H30H31V22V17.5ZM31 24.25V23.25H30H20.6667H19.6667V24.25V31V32H20.6667H25.3333C26.8247 32 28.262 31.429 29.3273 30.4018C30.3938 29.3734 31 27.9707 31 26.5V24.25ZM18.3333 32H19.3333V31V24.25V23.25H18.3333H11.3333H10.3333V24.25V31V32H11.3333H18.3333ZM9 32H10V31V24.25V23.25H9H2H1V24.25V26.5C1 27.9707 1.6062 29.3734 2.6727 30.4018C3.73796 31.429 5.17527 32 6.66667 32H9ZM1 22V23H2H9H10V22V17.5V16.5H9H2H1V17.5V22ZM1 15.25V16.25H2H9H10V15.25V10.75V9.75H9H2H1V10.75V15.25ZM10.3333 15.25V16.25H11.3333H18.3333H19.3333V15.25V10.75V9.75H18.3333H11.3333H10.3333V10.75V15.25ZM11.3333 16.5H10.3333V17.5V22V23H11.3333H18.3333H19.3333V22V17.5V16.5H18.3333H11.3333Z" fill="#A9FF8B" stroke="#1E1E1E" stroke-width="2"/>
</svg>
