<svg width="193" height="36" viewBox="0 0 193 36" fill="none" xmlns="http://www.w3.org/2000/svg">
<path d="M40.97 28C40.75 28 40.57 27.93 40.43 27.79C40.29 27.65 40.22 27.47 40.22 27.25V7.75C40.22 7.53 40.29 7.35 40.43 7.21C40.57 7.07 40.75 7 40.97 7H49.16C50.78 7 52.18 7.25 53.36 7.75C54.56 8.25 55.49 9.01 56.15 10.03C56.83 11.03 57.17 12.28 57.17 13.78C57.17 15.3 56.83 16.56 56.15 17.56C55.49 18.54 54.56 19.27 53.36 19.75C52.18 20.23 50.78 20.47 49.16 20.47H45.14V27.25C45.14 27.47 45.07 27.65 44.93 27.79C44.79 27.93 44.61 28 44.39 28H40.97ZM45.05 16.75H49.01C50.03 16.75 50.82 16.5 51.38 16C51.96 15.5 52.25 14.75 52.25 13.75C52.25 12.87 51.99 12.15 51.47 11.59C50.97 11.03 50.15 10.75 49.01 10.75H45.05V16.75ZM66.264 28.3C64.604 28.3 63.214 28.03 62.094 27.49C60.974 26.93 60.114 26.14 59.514 25.12C58.934 24.1 58.614 22.91 58.554 21.55C58.534 21.15 58.524 20.7 58.524 20.2C58.524 19.68 58.534 19.23 58.554 18.85C58.614 17.47 58.954 16.28 59.574 15.28C60.194 14.26 61.064 13.48 62.184 12.94C63.304 12.38 64.664 12.1 66.264 12.1C67.844 12.1 69.194 12.38 70.314 12.94C71.434 13.48 72.304 14.26 72.924 15.28C73.544 16.28 73.884 17.47 73.944 18.85C73.984 19.23 74.004 19.68 74.004 20.2C74.004 20.7 73.984 21.15 73.944 21.55C73.884 22.91 73.554 24.1 72.954 25.12C72.374 26.14 71.524 26.93 70.404 27.49C69.284 28.03 67.904 28.3 66.264 28.3ZM66.264 25C67.244 25 67.984 24.7 68.484 24.1C68.984 23.48 69.254 22.58 69.294 21.4C69.314 21.1 69.324 20.7 69.324 20.2C69.324 19.7 69.314 19.3 69.294 19C69.254 17.84 68.984 16.95 68.484 16.33C67.984 15.71 67.244 15.4 66.264 15.4C65.284 15.4 64.534 15.71 64.014 16.33C63.514 16.95 63.244 17.84 63.204 19C63.184 19.3 63.174 19.7 63.174 20.2C63.174 20.7 63.184 21.1 63.204 21.4C63.244 22.58 63.514 23.48 64.014 24.1C64.534 24.7 65.284 25 66.264 25ZM80.3921 28C80.1121 28 79.8921 27.93 79.7321 27.79C79.5921 27.65 79.4821 27.47 79.4021 27.25L75.1121 13.36C75.0721 13.26 75.0521 13.16 75.0521 13.06C75.0521 12.88 75.1121 12.73 75.2321 12.61C75.3721 12.47 75.5321 12.4 75.7121 12.4H78.3521C78.6121 12.4 78.8121 12.47 78.9521 12.61C79.0921 12.75 79.1821 12.88 79.2221 13L81.9521 22.27L84.8621 13.06C84.9021 12.92 84.9921 12.78 85.1321 12.64C85.2921 12.48 85.5121 12.4 85.7921 12.4H87.5021C87.7821 12.4 87.9921 12.48 88.1321 12.64C88.2921 12.78 88.3921 12.92 88.4321 13.06L91.3421 22.27L94.0721 13C94.0921 12.88 94.1721 12.75 94.3121 12.61C94.4721 12.47 94.6721 12.4 94.9121 12.4H97.5521C97.7321 12.4 97.8821 12.47 98.0021 12.61C98.1421 12.73 98.2121 12.88 98.2121 13.06C98.2121 13.16 98.2021 13.26 98.1821 13.36L93.8621 27.25C93.8021 27.47 93.6921 27.65 93.5321 27.79C93.3921 27.93 93.1821 28 92.9021 28H90.5921C90.3121 28 90.0921 27.93 89.9321 27.79C89.7721 27.65 89.6521 27.47 89.5721 27.25L86.6621 18.37L83.6921 27.25C83.6321 27.47 83.5221 27.65 83.3621 27.79C83.2021 27.93 82.9821 28 82.7021 28H80.3921ZM106.896 28.3C104.596 28.3 102.766 27.66 101.406 26.38C100.066 25.1 99.3557 23.24 99.2757 20.8C99.2757 20.64 99.2757 20.43 99.2757 20.17C99.2757 19.89 99.2757 19.67 99.2757 19.51C99.3557 17.97 99.7057 16.65 100.326 15.55C100.946 14.43 101.816 13.58 102.936 13C104.056 12.4 105.366 12.1 106.866 12.1C108.546 12.1 109.946 12.45 111.066 13.15C112.206 13.83 113.056 14.77 113.616 15.97C114.196 17.15 114.486 18.51 114.486 20.05V20.74C114.486 20.94 114.406 21.11 114.246 21.25C114.106 21.39 113.936 21.46 113.736 21.46H103.926C103.926 21.48 103.926 21.52 103.926 21.58C103.926 21.62 103.926 21.66 103.926 21.7C103.946 22.34 104.066 22.93 104.286 23.47C104.526 23.99 104.856 24.41 105.276 24.73C105.716 25.05 106.236 25.21 106.836 25.21C107.336 25.21 107.746 25.14 108.066 25C108.386 24.86 108.646 24.69 108.846 24.49C109.066 24.29 109.226 24.12 109.326 23.98C109.506 23.78 109.646 23.66 109.746 23.62C109.866 23.56 110.046 23.53 110.286 23.53H113.406C113.606 23.53 113.766 23.59 113.886 23.71C114.026 23.81 114.086 23.96 114.066 24.16C114.046 24.48 113.876 24.88 113.556 25.36C113.256 25.82 112.806 26.28 112.206 26.74C111.606 27.18 110.856 27.55 109.956 27.85C109.076 28.15 108.056 28.3 106.896 28.3ZM103.926 18.73H109.806V18.67C109.806 17.95 109.686 17.33 109.446 16.81C109.226 16.27 108.896 15.85 108.456 15.55C108.016 15.25 107.486 15.1 106.866 15.1C106.246 15.1 105.716 15.25 105.276 15.55C104.836 15.85 104.496 16.27 104.256 16.81C104.036 17.33 103.926 17.95 103.926 18.67V18.73ZM117.605 28C117.405 28 117.235 27.93 117.095 27.79C116.955 27.65 116.885 27.47 116.885 27.25V13.15C116.885 12.95 116.955 12.78 117.095 12.64C117.235 12.48 117.405 12.4 117.605 12.4H120.545C120.745 12.4 120.915 12.48 121.055 12.64C121.215 12.78 121.295 12.95 121.295 13.15V14.35C121.795 13.73 122.405 13.25 123.125 12.91C123.865 12.57 124.715 12.4 125.675 12.4H126.965C127.165 12.4 127.335 12.47 127.475 12.61C127.615 12.75 127.685 12.93 127.685 13.15V15.73C127.685 15.95 127.615 16.13 127.475 16.27C127.335 16.41 127.165 16.48 126.965 16.48H124.325C123.445 16.48 122.755 16.73 122.255 17.23C121.755 17.71 121.505 18.4 121.505 19.3V27.25C121.505 27.47 121.435 27.65 121.295 27.79C121.155 27.93 120.975 28 120.755 28H117.605ZM136.076 28.3C134.616 28.3 133.326 28.03 132.206 27.49C131.106 26.95 130.236 26.17 129.596 25.15C128.956 24.11 128.606 22.87 128.546 21.43C128.526 21.11 128.516 20.71 128.516 20.23C128.516 19.73 128.526 19.32 128.546 19C128.606 17.54 128.946 16.3 129.566 15.28C130.206 14.24 131.086 13.45 132.206 12.91C133.326 12.37 134.616 12.1 136.076 12.1C137.416 12.1 138.556 12.29 139.496 12.67C140.436 13.03 141.206 13.49 141.806 14.05C142.406 14.61 142.846 15.2 143.126 15.82C143.426 16.42 143.586 16.95 143.606 17.41C143.626 17.61 143.556 17.79 143.396 17.95C143.256 18.09 143.086 18.16 142.886 18.16H139.676C139.476 18.16 139.316 18.11 139.196 18.01C139.096 17.89 138.996 17.73 138.896 17.53C138.616 16.83 138.256 16.33 137.816 16.03C137.376 15.73 136.826 15.58 136.166 15.58C135.266 15.58 134.556 15.87 134.036 16.45C133.516 17.03 133.236 17.93 133.196 19.15C133.176 19.93 133.176 20.64 133.196 21.28C133.256 22.52 133.536 23.42 134.036 23.98C134.556 24.54 135.266 24.82 136.166 24.82C136.866 24.82 137.426 24.67 137.846 24.37C138.266 24.07 138.616 23.57 138.896 22.87C138.976 22.67 139.076 22.52 139.196 22.42C139.316 22.3 139.476 22.24 139.676 22.24H142.886C143.086 22.24 143.256 22.32 143.396 22.48C143.556 22.62 143.626 22.79 143.606 22.99C143.586 23.33 143.486 23.73 143.306 24.19C143.146 24.65 142.876 25.12 142.496 25.6C142.136 26.08 141.666 26.53 141.086 26.95C140.506 27.35 139.796 27.68 138.956 27.94C138.136 28.18 137.176 28.3 136.076 28.3ZM152.908 28.3C150.608 28.3 148.778 27.66 147.418 26.38C146.078 25.1 145.368 23.24 145.288 20.8C145.288 20.64 145.288 20.43 145.288 20.17C145.288 19.89 145.288 19.67 145.288 19.51C145.368 17.97 145.718 16.65 146.338 15.55C146.958 14.43 147.828 13.58 148.948 13C150.068 12.4 151.378 12.1 152.878 12.1C154.558 12.1 155.958 12.45 157.078 13.15C158.218 13.83 159.068 14.77 159.628 15.97C160.208 17.15 160.498 18.51 160.498 20.05V20.74C160.498 20.94 160.418 21.11 160.258 21.25C160.118 21.39 159.948 21.46 159.748 21.46H149.938C149.938 21.48 149.938 21.52 149.938 21.58C149.938 21.62 149.938 21.66 149.938 21.7C149.958 22.34 150.078 22.93 150.298 23.47C150.538 23.99 150.868 24.41 151.288 24.73C151.728 25.05 152.248 25.21 152.848 25.21C153.348 25.21 153.758 25.14 154.078 25C154.398 24.86 154.658 24.69 154.858 24.49C155.078 24.29 155.238 24.12 155.338 23.98C155.518 23.78 155.658 23.66 155.758 23.62C155.878 23.56 156.058 23.53 156.298 23.53H159.418C159.618 23.53 159.778 23.59 159.898 23.71C160.038 23.81 160.098 23.96 160.078 24.16C160.058 24.48 159.888 24.88 159.568 25.36C159.268 25.82 158.818 26.28 158.218 26.74C157.618 27.18 156.868 27.55 155.968 27.85C155.088 28.15 154.068 28.3 152.908 28.3ZM149.938 18.73H155.818V18.67C155.818 17.95 155.698 17.33 155.458 16.81C155.238 16.27 154.908 15.85 154.468 15.55C154.028 15.25 153.498 15.1 152.878 15.1C152.258 15.1 151.728 15.25 151.288 15.55C150.848 15.85 150.508 16.27 150.268 16.81C150.048 17.33 149.938 17.95 149.938 18.67V18.73ZM163.647 28C163.427 28 163.247 27.93 163.107 27.79C162.967 27.65 162.897 27.47 162.897 27.25V7.45C162.897 7.23 162.967 7.05 163.107 6.91C163.247 6.77 163.427 6.7 163.647 6.7H166.647C166.847 6.7 167.017 6.77 167.157 6.91C167.297 7.05 167.367 7.23 167.367 7.45V27.25C167.367 27.47 167.297 27.65 167.157 27.79C167.017 27.93 166.847 28 166.647 28H163.647ZM171.309 28C171.089 28 170.909 27.93 170.769 27.79C170.629 27.65 170.559 27.47 170.559 27.25V7.45C170.559 7.23 170.629 7.05 170.769 6.91C170.909 6.77 171.089 6.7 171.309 6.7H174.309C174.509 6.7 174.679 6.77 174.819 6.91C174.959 7.05 175.029 7.23 175.029 7.45V27.25C175.029 27.47 174.959 27.65 174.819 27.79C174.679 27.93 174.509 28 174.309 28H171.309ZM184.37 28.3C183.13 28.3 182.06 28.16 181.16 27.88C180.28 27.58 179.56 27.22 179 26.8C178.46 26.38 178.05 25.96 177.77 25.54C177.51 25.1 177.37 24.73 177.35 24.43C177.33 24.21 177.4 24.03 177.56 23.89C177.72 23.75 177.88 23.68 178.04 23.68H180.95C181.01 23.68 181.07 23.69 181.13 23.71C181.19 23.73 181.25 23.78 181.31 23.86C181.57 24.04 181.84 24.25 182.12 24.49C182.4 24.71 182.72 24.9 183.08 25.06C183.46 25.22 183.93 25.3 184.49 25.3C185.15 25.3 185.71 25.17 186.17 24.91C186.63 24.63 186.86 24.24 186.86 23.74C186.86 23.38 186.75 23.08 186.53 22.84C186.33 22.6 185.94 22.38 185.36 22.18C184.78 21.98 183.92 21.76 182.78 21.52C181.7 21.28 180.78 20.96 180.02 20.56C179.26 20.16 178.69 19.66 178.31 19.06C177.93 18.44 177.74 17.7 177.74 16.84C177.74 16.06 177.98 15.31 178.46 14.59C178.96 13.87 179.69 13.28 180.65 12.82C181.61 12.34 182.81 12.1 184.25 12.1C185.35 12.1 186.31 12.24 187.13 12.52C187.97 12.78 188.67 13.12 189.23 13.54C189.79 13.94 190.21 14.36 190.49 14.8C190.79 15.22 190.95 15.59 190.97 15.91C190.99 16.11 190.93 16.28 190.79 16.42C190.65 16.56 190.49 16.63 190.31 16.63H187.64C187.54 16.63 187.45 16.62 187.37 16.6C187.29 16.56 187.22 16.51 187.16 16.45C186.92 16.29 186.67 16.11 186.41 15.91C186.17 15.69 185.88 15.5 185.54 15.34C185.2 15.18 184.76 15.1 184.22 15.1C183.56 15.1 183.05 15.25 182.69 15.55C182.35 15.83 182.18 16.19 182.18 16.63C182.18 16.91 182.27 17.17 182.45 17.41C182.63 17.65 183 17.87 183.56 18.07C184.12 18.27 184.97 18.48 186.11 18.7C187.47 18.94 188.55 19.3 189.35 19.78C190.15 20.26 190.72 20.82 191.06 21.46C191.42 22.08 191.6 22.75 191.6 23.47C191.6 24.41 191.32 25.25 190.76 25.99C190.2 26.71 189.38 27.28 188.3 27.7C187.24 28.1 185.93 28.3 184.37 28.3Z" fill="white"/>
<path d="M1 8.5V9.5H2H30H31V8.5V7C31 5.52933 30.3938 4.12659 29.3273 3.09818C28.262 2.07095 26.8247 1.5 25.3333 1.5H6.66667C5.17527 1.5 3.73796 2.07095 2.6727 3.09818C1.6062 4.12659 1 5.52933 1 7V8.5ZM31 10.75V9.75H30H20.6667H19.6667V10.75V15.25V16.25H20.6667H30H31V15.25V10.75ZM31 17.5V16.5H30H20.6667H19.6667V17.5V22V23H20.6667H30H31V22V17.5ZM31 24.25V23.25H30H20.6667H19.6667V24.25V31V32H20.6667H25.3333C26.8247 32 28.262 31.429 29.3273 30.4018C30.3938 29.3734 31 27.9707 31 26.5V24.25ZM18.3333 32H19.3333V31V24.25V23.25H18.3333H11.3333H10.3333V24.25V31V32H11.3333H18.3333ZM9 32H10V31V24.25V23.25H9H2H1V24.25V26.5C1 27.9707 1.6062 29.3734 2.6727 30.4018C3.73796 31.429 5.17527 32 6.66667 32H9ZM1 22V23H2H9H10V22V17.5V16.5H9H2H1V17.5V22ZM1 15.25V16.25H2H9H10V15.25V10.75V9.75H9H2H1V10.75V15.25ZM10.3333 15.25V16.25H11.3333H18.3333H19.3333V15.25V10.75V9.75H18.3333H11.3333H10.3333V10.75V15.25ZM11.3333 16.5H10.3333V17.5V22V23H11.3333H18.3333H19.3333V22V17.5V16.5H18.3333H11.3333Z" fill="#A9FF8B" stroke="#1E1E1E" stroke-width="2"/>
</svg>
